# xmcd
#
# Track frame offsets:
#        150
#        20775
#        40125
#        58275
#        75525
#        91200
#        108450
#        122625
#        141000
#        157050
#        172650
#        190275
#        207450
#
# Disc length: 2786 seconds
#
# Revision: 0
# Processed by: cddbd v1.5.2PL0 Copyright (c) Steve Scherf et al.
# Submitted via: CDGFix 3.5b
#
DISCID=b10ae00d
DTITLE=Evans Sara - QH-003
DYEAR=1900
DGENRE=Karaoke
TTITLE0=Evans Sara - You'll Always Be My Baby
TTITLE1=Evans Sara - Missing Missouri
TTITLE2=Evans Sara - A Real Fine Place To Start
TTITLE3=Evans Sara - Suds In The Bucket
TTITLE4=Evans Sara - Cheatin'
TTITLE5=Evans Sara - Perfect
TTITLE6=Evans Sara - Fool, I'm A Woman
TTITLE7=Evans Sara - I Could Not Ask For More
TTITLE8=Evans Sara - No Place For That
TTITLE9=Evans Sara - Coalmine
TTITLE10=Evans Sara - I Keep Looking
TTITLE11=Evans Sara - Saints And Angels
TTITLE12=Evans Sara - empty track
EXTD=
EXTT0=
EXTT1=
EXTT2=
EXTT3=
EXTT4=
EXTT5=
EXTT6=
EXTT7=
EXTT8=
EXTT9=
EXTT10=
EXTT11=
EXTT12=
PLAYORDER=
